name rise42.5664peak47.7979fall81.9185.mot
datacolumns 19
datarows 18
range 1.84999300000000 1.87832100000000
endheader
time	ground_force1_vx	ground_force1_vy	ground_force1_vz	ground_force1_px	ground_force1_py	ground_force1_pz	ground_force2_vx	ground_force2_vy	ground_force2_vz	ground_force2_px	ground_force2_py	ground_force2_pz	ground_torque1_x	ground_torque1_y	ground_torque1_z	ground_torque2_x	ground_torque2_y	ground_torque2_z	
1.84999300000000	15.59121600000000	709.96285499999999	42.35106700000000	0.16489100000000	0.00000000000000	0.10673100000000	0.00000000000000	0.00000000000000	0.00000000000000	0.00000000000000	0.00000000000000	0.00000000000000	0.00000000000000	10.95244800000000	0.00000000000000	0.00000000000000	0.00000000000000	0.00000000000000	
1.85165700000000	15.37346800000000	710.89094999999998	42.40174300000000	0.16408800000000	0.00000000000000	0.10677000000000	0.00000000000000	0.00000000000000	0.00000000000000	0.00000000000000	0.00000000000000	0.00000000000000	0.00000000000000	10.96462600000000	0.00000000000000	0.00000000000000	0.00000000000000	0.00000000000000	
1.85332200000000	15.14239500000000	711.83609600000000	42.45450800000000	0.16326700000000	0.00000000000000	0.10681000000000	0.00000000000000	0.00000000000000	0.00000000000000	0.00000000000000	0.00000000000000	0.00000000000000	0.00000000000000	10.97996800000000	0.00000000000000	0.00000000000000	0.00000000000000	0.00000000000000	
1.85498900000000	14.89782700000000	712.79612499999996	42.50903200000000	0.16243000000000	0.00000000000000	0.10685000000000	0.00000000000000	0.00000000000000	0.00000000000000	0.00000000000000	0.00000000000000	0.00000000000000	0.00000000000000	10.99842900000000	0.00000000000000	0.00000000000000	0.00000000000000	0.00000000000000	
1.85665500000000	14.63963900000000	713.76899100000003	42.56499600000000	0.16157600000000	0.00000000000000	0.10688900000000	0.00000000000000	0.00000000000000	0.00000000000000	0.00000000000000	0.00000000000000	0.00000000000000	0.00000000000000	11.01996500000000	0.00000000000000	0.00000000000000	0.00000000000000	0.00000000000000	
1.85832900000000	14.36774500000000	714.75277700000004	42.62209700000000	0.16070800000000	0.00000000000000	0.10692900000000	0.00000000000000	0.00000000000000	0.00000000000000	0.00000000000000	0.00000000000000	0.00000000000000	0.00000000000000	11.04452800000000	0.00000000000000	0.00000000000000	0.00000000000000	0.00000000000000	
1.85999100000000	14.08210700000000	715.74570400000005	42.68004600000000	0.15982500000000	0.00000000000000	0.10696900000000	0.00000000000000	0.00000000000000	0.00000000000000	0.00000000000000	0.00000000000000	0.00000000000000	0.00000000000000	11.07206500000000	0.00000000000000	0.00000000000000	0.00000000000000	0.00000000000000	
1.86165600000000	13.78272400000000	716.74612800000000	42.73857100000000	0.15892900000000	0.00000000000000	0.10700900000000	0.00000000000000	0.00000000000000	0.00000000000000	0.00000000000000	0.00000000000000	0.00000000000000	0.00000000000000	11.10252200000000	0.00000000000000	0.00000000000000	0.00000000000000	0.00000000000000	
1.86332800000000	13.46964000000000	717.75255200000004	42.79741400000000	0.15801900000000	0.00000000000000	0.10704800000000	0.00000000000000	0.00000000000000	0.00000000000000	0.00000000000000	0.00000000000000	0.00000000000000	0.00000000000000	11.13583900000000	0.00000000000000	0.00000000000000	0.00000000000000	0.00000000000000	
1.86499500000000	13.14294100000000	718.76362300000005	42.85633700000000	0.15709800000000	0.00000000000000	0.10708700000000	0.00000000000000	0.00000000000000	0.00000000000000	0.00000000000000	0.00000000000000	0.00000000000000	0.00000000000000	11.17195500000000	0.00000000000000	0.00000000000000	0.00000000000000	0.00000000000000	
1.86668100000000	12.80275000000000	719.77813500000002	42.91511700000000	0.15616500000000	0.00000000000000	0.10712600000000	0.00000000000000	0.00000000000000	0.00000000000000	0.00000000000000	0.00000000000000	0.00000000000000	0.00000000000000	11.21080300000000	0.00000000000000	0.00000000000000	0.00000000000000	0.00000000000000	
1.86832700000000	12.44923300000000	720.79503199999999	42.97355100000000	0.15522200000000	0.00000000000000	0.10716400000000	0.00000000000000	0.00000000000000	0.00000000000000	0.00000000000000	0.00000000000000	0.00000000000000	0.00000000000000	11.25231300000000	0.00000000000000	0.00000000000000	0.00000000000000	0.00000000000000	
1.86998800000000	12.08259400000000	721.81340799999998	43.03145200000000	0.15426900000000	0.00000000000000	0.10720200000000	0.00000000000000	0.00000000000000	0.00000000000000	0.00000000000000	0.00000000000000	0.00000000000000	0.00000000000000	11.29640900000000	0.00000000000000	0.00000000000000	0.00000000000000	0.00000000000000	
1.87165800000000	11.70307200000000	722.83250099999998	43.08865400000000	0.15330700000000	0.00000000000000	0.10723900000000	0.00000000000000	0.00000000000000	0.00000000000000	0.00000000000000	0.00000000000000	0.00000000000000	0.00000000000000	11.34301400000000	0.00000000000000	0.00000000000000	0.00000000000000	0.00000000000000	
1.87332900000000	11.31094600000000	723.85170100000005	43.14500800000000	0.15233700000000	0.00000000000000	0.10727500000000	0.00000000000000	0.00000000000000	0.00000000000000	0.00000000000000	0.00000000000000	0.00000000000000	0.00000000000000	11.39204200000000	0.00000000000000	0.00000000000000	0.00000000000000	0.00000000000000	
1.87498900000000	10.90652600000000	724.87053900000001	43.20038400000000	0.15136100000000	0.00000000000000	0.10731100000000	0.00000000000000	0.00000000000000	0.00000000000000	0.00000000000000	0.00000000000000	0.00000000000000	0.00000000000000	11.44340800000000	0.00000000000000	0.00000000000000	0.00000000000000	0.00000000000000	
1.87665500000000	10.49015800000000	725.88869000000000	43.25467400000000	0.15037700000000	0.00000000000000	0.10734600000000	0.00000000000000	0.00000000000000	0.00000000000000	0.00000000000000	0.00000000000000	0.00000000000000	0.00000000000000	11.49701700000000	0.00000000000000	0.00000000000000	0.00000000000000	0.00000000000000	
1.87832100000000	10.06221900000000	726.90596500000004	43.30778500000000	0.14938900000000	0.00000000000000	0.10738000000000	0.00000000000000	0.00000000000000	0.00000000000000	0.00000000000000	0.00000000000000	0.00000000000000	0.00000000000000	11.55277300000000	0.00000000000000	0.00000000000000	0.00000000000000	0.00000000000000	
